<svg width="32" height="32" viewBox="0 0 32 32" fill="none" xmlns="http://www.w3.org/2000/svg">
<path fill-rule="evenodd" clip-rule="evenodd" d="M7.51469 24.4853C9.78119 26.7518 12.7947 28 16 28C19.2053 28 22.2189 26.7519 24.4853 24.4853C26.7518 22.2188 28 19.2053 28 16C28 12.7947 26.7518 9.78119 24.4853 7.51469C22.2188 5.24819 19.2053 4 16 4C12.7947 4 9.78114 5.24814 7.51469 7.51469C5.24823 9.78123 4 12.7947 4 16C4 19.2053 5.24819 22.2188 7.51469 24.4853ZM5.5 16C5.5 10.2103 10.2103 5.5 16 5.5C21.7897 5.5 26.5 10.2103 26.5 16C26.5 21.7897 21.7897 26.5 16 26.5C10.2103 26.5 5.5 21.7897 5.5 16ZM14.125 13.375C14.125 14.4089 14.9661 15.25 16 15.25C17.861 15.25 19.375 16.764 19.375 18.625C19.375 20.2282 18.251 21.5729 16.75 21.915V22.75C16.75 23.1642 16.4142 23.5 16 23.5C15.5858 23.5 15.25 23.1642 15.25 22.75V21.915C13.749 21.5729 12.625 20.2282 12.625 18.625C12.625 18.2108 12.9608 17.875 13.375 17.875C13.7892 17.875 14.125 18.2108 14.125 18.625C14.125 19.6589 14.9661 20.5 16 20.5C17.0339 20.5 17.875 19.6589 17.875 18.625C17.875 17.5911 17.0339 16.75 16 16.75C14.139 16.75 12.625 15.236 12.625 13.375C12.625 11.7718 13.749 10.4271 15.25 10.085V9.25C15.25 8.83581 15.5858 8.5 16 8.5C16.4142 8.5 16.75 8.83581 16.75 9.25V10.085C18.251 10.4271 19.375 11.7718 19.375 13.375C19.375 13.7892 19.0392 14.125 18.625 14.125C18.2108 14.125 17.875 13.7892 17.875 13.375C17.875 12.3411 17.0339 11.5 16 11.5C14.9661 11.5 14.125 12.3411 14.125 13.375Z" fill="white"/>
</svg>
